<?xml version="1.0" encoding="utf-8" standalone="no"?>
<!DOCTYPE svg PUBLIC "-//W3C//DTD SVG 1.1//EN"
  "http://www.w3.org/Graphics/SVG/1.1/DTD/svg11.dtd">
<!-- Created with matplotlib (http://matplotlib.org/) -->
<svg height="485pt" version="1.1" viewBox="0 0 983 485" width="983pt" xmlns="http://www.w3.org/2000/svg" xmlns:xlink="http://www.w3.org/1999/xlink">
 <defs>
  <style type="text/css">
*{stroke-linecap:butt;stroke-linejoin:round;}
  </style>
 </defs>
 <g id="figure_1">
  <g id="patch_1">
   <path d="M 0 485.28 
L 983.52 485.28 
L 983.52 0 
L 0 0 
z
" style="fill:#ffffff;"/>
  </g>
  <g id="axes_1">
   <g id="patch_2">
    <path d="M 122.94 431.8992 
L 885.168 431.8992 
L 885.168 58.2336 
L 122.94 58.2336 
z
" style="fill:#eaeaf2;"/>
   </g>
   <g id="matplotlib.axis_1">
    <g id="xtick_1">
     <g id="line2d_1"/>
     <g id="text_1">
      <!-- lyapunov -->
      <defs>
       <path d="M 6.390625 0 
L 6.390625 71.578125 
L 15.1875 71.578125 
L 15.1875 0 
z
" id="ArialMT-6c"/>
       <path d="M 6.203125 -19.96875 
L 5.21875 -11.71875 
Q 8.109375 -12.5 10.25 -12.5 
Q 13.1875 -12.5 14.9375 -11.515625 
Q 16.703125 -10.546875 17.828125 -8.796875 
Q 18.65625 -7.46875 20.515625 -2.25 
Q 20.75 -1.515625 21.296875 -0.09375 
L 1.609375 51.859375 
L 11.078125 51.859375 
L 21.875 21.828125 
Q 23.96875 16.109375 25.640625 9.8125 
Q 27.15625 15.875 29.25 21.625 
L 40.328125 51.859375 
L 49.125 51.859375 
L 29.390625 -0.875 
Q 26.21875 -9.421875 24.46875 -12.640625 
Q 22.125 -17 19.09375 -19.015625 
Q 16.0625 -21.046875 11.859375 -21.046875 
Q 9.328125 -21.046875 6.203125 -19.96875 
z
" id="ArialMT-79"/>
       <path d="M 40.4375 6.390625 
Q 35.546875 2.25 31.03125 0.53125 
Q 26.515625 -1.171875 21.34375 -1.171875 
Q 12.796875 -1.171875 8.203125 3 
Q 3.609375 7.171875 3.609375 13.671875 
Q 3.609375 17.484375 5.34375 20.625 
Q 7.078125 23.78125 9.890625 25.6875 
Q 12.703125 27.59375 16.21875 28.5625 
Q 18.796875 29.25 24.03125 29.890625 
Q 34.671875 31.15625 39.703125 32.90625 
Q 39.75 34.71875 39.75 35.203125 
Q 39.75 40.578125 37.25 42.78125 
Q 33.890625 45.75 27.25 45.75 
Q 21.046875 45.75 18.09375 43.578125 
Q 15.140625 41.40625 13.71875 35.890625 
L 5.125 37.0625 
Q 6.296875 42.578125 8.984375 45.96875 
Q 11.671875 49.359375 16.75 51.1875 
Q 21.828125 53.03125 28.515625 53.03125 
Q 35.15625 53.03125 39.296875 51.46875 
Q 43.453125 49.90625 45.40625 47.53125 
Q 47.359375 45.171875 48.140625 41.546875 
Q 48.578125 39.3125 48.578125 33.453125 
L 48.578125 21.734375 
Q 48.578125 9.46875 49.140625 6.21875 
Q 49.703125 2.984375 51.375 0 
L 42.1875 0 
Q 40.828125 2.734375 40.4375 6.390625 
z
M 39.703125 26.03125 
Q 34.90625 24.078125 25.34375 22.703125 
Q 19.921875 21.921875 17.671875 20.9375 
Q 15.4375 19.96875 14.203125 18.09375 
Q 12.984375 16.21875 12.984375 13.921875 
Q 12.984375 10.40625 15.640625 8.0625 
Q 18.3125 5.71875 23.4375 5.71875 
Q 28.515625 5.71875 32.46875 7.9375 
Q 36.421875 10.15625 38.28125 14.015625 
Q 39.703125 17 39.703125 22.796875 
z
" id="ArialMT-61"/>
       <path d="M 6.59375 -19.875 
L 6.59375 51.859375 
L 14.59375 51.859375 
L 14.59375 45.125 
Q 17.4375 49.078125 21 51.046875 
Q 24.5625 53.03125 29.640625 53.03125 
Q 36.28125 53.03125 41.359375 49.609375 
Q 46.4375 46.1875 49.015625 39.953125 
Q 51.609375 33.734375 51.609375 26.3125 
Q 51.609375 18.359375 48.75 11.984375 
Q 45.90625 5.609375 40.453125 2.21875 
Q 35.015625 -1.171875 29 -1.171875 
Q 24.609375 -1.171875 21.109375 0.6875 
Q 17.625 2.546875 15.375 5.375 
L 15.375 -19.875 
z
M 14.546875 25.640625 
Q 14.546875 15.625 18.59375 10.84375 
Q 22.65625 6.0625 28.421875 6.0625 
Q 34.28125 6.0625 38.453125 11.015625 
Q 42.625 15.96875 42.625 26.375 
Q 42.625 36.28125 38.546875 41.203125 
Q 34.46875 46.140625 28.8125 46.140625 
Q 23.1875 46.140625 18.859375 40.890625 
Q 14.546875 35.640625 14.546875 25.640625 
z
" id="ArialMT-70"/>
       <path d="M 40.578125 0 
L 40.578125 7.625 
Q 34.515625 -1.171875 24.125 -1.171875 
Q 19.53125 -1.171875 15.546875 0.578125 
Q 11.578125 2.34375 9.640625 5 
Q 7.71875 7.671875 6.9375 11.53125 
Q 6.390625 14.109375 6.390625 19.734375 
L 6.390625 51.859375 
L 15.1875 51.859375 
L 15.1875 23.09375 
Q 15.1875 16.21875 15.71875 13.8125 
Q 16.546875 10.359375 19.234375 8.375 
Q 21.921875 6.390625 25.875 6.390625 
Q 29.828125 6.390625 33.296875 8.421875 
Q 36.765625 10.453125 38.203125 13.9375 
Q 39.65625 17.4375 39.65625 24.078125 
L 39.65625 51.859375 
L 48.4375 51.859375 
L 48.4375 0 
z
" id="ArialMT-75"/>
       <path d="M 6.59375 0 
L 6.59375 51.859375 
L 14.5 51.859375 
L 14.5 44.484375 
Q 20.21875 53.03125 31 53.03125 
Q 35.6875 53.03125 39.625 51.34375 
Q 43.5625 49.65625 45.515625 46.921875 
Q 47.46875 44.1875 48.25 40.4375 
Q 48.734375 37.984375 48.734375 31.890625 
L 48.734375 0 
L 39.9375 0 
L 39.9375 31.546875 
Q 39.9375 36.921875 38.90625 39.578125 
Q 37.890625 42.234375 35.28125 43.8125 
Q 32.671875 45.40625 29.15625 45.40625 
Q 23.53125 45.40625 19.453125 41.84375 
Q 15.375 38.28125 15.375 28.328125 
L 15.375 0 
z
" id="ArialMT-6e"/>
       <path d="M 3.328125 25.921875 
Q 3.328125 40.328125 11.328125 47.265625 
Q 18.015625 53.03125 27.640625 53.03125 
Q 38.328125 53.03125 45.109375 46.015625 
Q 51.90625 39.015625 51.90625 26.65625 
Q 51.90625 16.65625 48.90625 10.90625 
Q 45.90625 5.171875 40.15625 2 
Q 34.421875 -1.171875 27.640625 -1.171875 
Q 16.75 -1.171875 10.03125 5.8125 
Q 3.328125 12.796875 3.328125 25.921875 
z
M 12.359375 25.921875 
Q 12.359375 15.96875 16.703125 11.015625 
Q 21.046875 6.0625 27.640625 6.0625 
Q 34.1875 6.0625 38.53125 11.03125 
Q 42.875 16.015625 42.875 26.21875 
Q 42.875 35.84375 38.5 40.796875 
Q 34.125 45.75 27.640625 45.75 
Q 21.046875 45.75 16.703125 40.8125 
Q 12.359375 35.890625 12.359375 25.921875 
z
" id="ArialMT-6f"/>
       <path d="M 21 0 
L 1.265625 51.859375 
L 10.546875 51.859375 
L 21.6875 20.796875 
Q 23.484375 15.765625 25 10.359375 
Q 26.171875 14.453125 28.265625 20.21875 
L 39.796875 51.859375 
L 48.828125 51.859375 
L 29.203125 0 
z
" id="ArialMT-76"/>
      </defs>
      <g style="fill:#262626;" transform="translate(287.479734 450.304356)scale(0.13 -0.13)">
       <use xlink:href="#ArialMT-6c"/>
       <use x="22.216797" xlink:href="#ArialMT-79"/>
       <use x="72.216797" xlink:href="#ArialMT-61"/>
       <use x="127.832031" xlink:href="#ArialMT-70"/>
       <use x="183.447266" xlink:href="#ArialMT-75"/>
       <use x="239.0625" xlink:href="#ArialMT-6e"/>
       <use x="294.677734" xlink:href="#ArialMT-6f"/>
       <use x="350.292969" xlink:href="#ArialMT-76"/>
      </g>
     </g>
    </g>
    <g id="xtick_2">
     <g id="line2d_2"/>
     <g id="text_2">
      <!-- moments -->
      <defs>
       <path d="M 6.59375 0 
L 6.59375 51.859375 
L 14.453125 51.859375 
L 14.453125 44.578125 
Q 16.890625 48.390625 20.9375 50.703125 
Q 25 53.03125 30.171875 53.03125 
Q 35.9375 53.03125 39.625 50.640625 
Q 43.3125 48.25 44.828125 43.953125 
Q 50.984375 53.03125 60.84375 53.03125 
Q 68.5625 53.03125 72.703125 48.75 
Q 76.859375 44.484375 76.859375 35.59375 
L 76.859375 0 
L 68.109375 0 
L 68.109375 32.671875 
Q 68.109375 37.9375 67.25 40.25 
Q 66.40625 42.578125 64.15625 43.984375 
Q 61.921875 45.40625 58.890625 45.40625 
Q 53.421875 45.40625 49.796875 41.765625 
Q 46.1875 38.140625 46.1875 30.125 
L 46.1875 0 
L 37.40625 0 
L 37.40625 33.6875 
Q 37.40625 39.546875 35.25 42.46875 
Q 33.109375 45.40625 28.21875 45.40625 
Q 24.515625 45.40625 21.359375 43.453125 
Q 18.21875 41.5 16.796875 37.734375 
Q 15.375 33.984375 15.375 26.90625 
L 15.375 0 
z
" id="ArialMT-6d"/>
       <path d="M 42.09375 16.703125 
L 51.171875 15.578125 
Q 49.03125 7.625 43.21875 3.21875 
Q 37.40625 -1.171875 28.375 -1.171875 
Q 17 -1.171875 10.328125 5.828125 
Q 3.65625 12.84375 3.65625 25.484375 
Q 3.65625 38.578125 10.390625 45.796875 
Q 17.140625 53.03125 27.875 53.03125 
Q 38.28125 53.03125 44.875 45.953125 
Q 51.46875 38.875 51.46875 26.03125 
Q 51.46875 25.25 51.421875 23.6875 
L 12.75 23.6875 
Q 13.234375 15.140625 17.578125 10.59375 
Q 21.921875 6.0625 28.421875 6.0625 
Q 33.25 6.0625 36.671875 8.59375 
Q 40.09375 11.140625 42.09375 16.703125 
z
M 13.234375 30.90625 
L 42.1875 30.90625 
Q 41.609375 37.453125 38.875 40.71875 
Q 34.671875 45.796875 27.984375 45.796875 
Q 21.921875 45.796875 17.796875 41.75 
Q 13.671875 37.703125 13.234375 30.90625 
z
" id="ArialMT-65"/>
       <path d="M 25.78125 7.859375 
L 27.046875 0.09375 
Q 23.34375 -0.6875 20.40625 -0.6875 
Q 15.625 -0.6875 12.984375 0.828125 
Q 10.359375 2.34375 9.28125 4.8125 
Q 8.203125 7.28125 8.203125 15.1875 
L 8.203125 45.015625 
L 1.765625 45.015625 
L 1.765625 51.859375 
L 8.203125 51.859375 
L 8.203125 64.703125 
L 16.9375 69.96875 
L 16.9375 51.859375 
L 25.78125 51.859375 
L 25.78125 45.015625 
L 16.9375 45.015625 
L 16.9375 14.703125 
Q 16.9375 10.9375 17.40625 9.859375 
Q 17.875 8.796875 18.921875 8.15625 
Q 19.96875 7.515625 21.921875 7.515625 
Q 23.390625 7.515625 25.78125 7.859375 
z
" id="ArialMT-74"/>
       <path d="M 3.078125 15.484375 
L 11.765625 16.84375 
Q 12.5 11.625 15.84375 8.84375 
Q 19.1875 6.0625 25.203125 6.0625 
Q 31.25 6.0625 34.171875 8.515625 
Q 37.109375 10.984375 37.109375 14.3125 
Q 37.109375 17.28125 34.515625 19 
Q 32.71875 20.171875 25.53125 21.96875 
Q 15.875 24.421875 12.140625 26.203125 
Q 8.40625 27.984375 6.46875 31.125 
Q 4.546875 34.28125 4.546875 38.09375 
Q 4.546875 41.546875 6.125 44.5 
Q 7.71875 47.46875 10.453125 49.421875 
Q 12.5 50.921875 16.03125 51.96875 
Q 19.578125 53.03125 23.640625 53.03125 
Q 29.734375 53.03125 34.34375 51.265625 
Q 38.96875 49.515625 41.15625 46.5 
Q 43.359375 43.5 44.1875 38.484375 
L 35.59375 37.3125 
Q 35.015625 41.3125 32.203125 43.546875 
Q 29.390625 45.796875 24.265625 45.796875 
Q 18.21875 45.796875 15.625 43.796875 
Q 13.03125 41.796875 13.03125 39.109375 
Q 13.03125 37.40625 14.109375 36.03125 
Q 15.1875 34.625 17.484375 33.6875 
Q 18.796875 33.203125 25.25 31.453125 
Q 34.578125 28.953125 38.25 27.359375 
Q 41.9375 25.78125 44.03125 22.75 
Q 46.140625 19.734375 46.140625 15.234375 
Q 46.140625 10.84375 43.578125 6.953125 
Q 41.015625 3.078125 36.171875 0.953125 
Q 31.34375 -1.171875 25.25 -1.171875 
Q 15.140625 -1.171875 9.84375 3.03125 
Q 4.546875 7.234375 3.078125 15.484375 
z
" id="ArialMT-73"/>
      </defs>
      <g style="fill:#262626;" transform="translate(667.882797 450.304356)scale(0.13 -0.13)">
       <use xlink:href="#ArialMT-6d"/>
       <use x="83.300781" xlink:href="#ArialMT-6f"/>
       <use x="138.916016" xlink:href="#ArialMT-6d"/>
       <use x="222.216797" xlink:href="#ArialMT-65"/>
       <use x="277.832031" xlink:href="#ArialMT-6e"/>
       <use x="333.447266" xlink:href="#ArialMT-74"/>
       <use x="361.230469" xlink:href="#ArialMT-73"/>
      </g>
     </g>
    </g>
   </g>
   <g id="matplotlib.axis_2">
    <g id="ytick_1">
     <g id="line2d_3">
      <path clip-path="url(#pfcf2f4b428)" d="M 122.94 422.745381 
L 885.168 422.745381 
" style="fill:none;stroke:#ffffff;stroke-linecap:round;stroke-width:1.3;"/>
     </g>
     <g id="line2d_4"/>
     <g id="text_3">
      <!-- 0.3 -->
      <defs>
       <path d="M 4.15625 35.296875 
Q 4.15625 48 6.765625 55.734375 
Q 9.375 63.484375 14.515625 67.671875 
Q 19.671875 71.875 27.484375 71.875 
Q 33.25 71.875 37.59375 69.546875 
Q 41.9375 67.234375 44.765625 62.859375 
Q 47.609375 58.5 49.21875 52.21875 
Q 50.828125 45.953125 50.828125 35.296875 
Q 50.828125 22.703125 48.234375 14.96875 
Q 45.65625 7.234375 40.5 3 
Q 35.359375 -1.21875 27.484375 -1.21875 
Q 17.140625 -1.21875 11.234375 6.203125 
Q 4.15625 15.140625 4.15625 35.296875 
z
M 13.1875 35.296875 
Q 13.1875 17.671875 17.3125 11.828125 
Q 21.4375 6 27.484375 6 
Q 33.546875 6 37.671875 11.859375 
Q 41.796875 17.71875 41.796875 35.296875 
Q 41.796875 52.984375 37.671875 58.78125 
Q 33.546875 64.59375 27.390625 64.59375 
Q 21.34375 64.59375 17.71875 59.46875 
Q 13.1875 52.9375 13.1875 35.296875 
z
" id="ArialMT-30"/>
       <path d="M 9.078125 0 
L 9.078125 10.015625 
L 19.09375 10.015625 
L 19.09375 0 
z
" id="ArialMT-2e"/>
       <path d="M 4.203125 18.890625 
L 12.984375 20.0625 
Q 14.5 12.59375 18.140625 9.296875 
Q 21.78125 6 27 6 
Q 33.203125 6 37.46875 10.296875 
Q 41.75 14.59375 41.75 20.953125 
Q 41.75 27 37.796875 30.921875 
Q 33.84375 34.859375 27.734375 34.859375 
Q 25.25 34.859375 21.53125 33.890625 
L 22.515625 41.609375 
Q 23.390625 41.5 23.921875 41.5 
Q 29.546875 41.5 34.03125 44.421875 
Q 38.53125 47.359375 38.53125 53.46875 
Q 38.53125 58.296875 35.25 61.46875 
Q 31.984375 64.65625 26.8125 64.65625 
Q 21.6875 64.65625 18.265625 61.421875 
Q 14.84375 58.203125 13.875 51.765625 
L 5.078125 53.328125 
Q 6.6875 62.15625 12.390625 67.015625 
Q 18.109375 71.875 26.609375 71.875 
Q 32.46875 71.875 37.390625 69.359375 
Q 42.328125 66.84375 44.9375 62.5 
Q 47.5625 58.15625 47.5625 53.265625 
Q 47.5625 48.640625 45.0625 44.828125 
Q 42.578125 41.015625 37.703125 38.765625 
Q 44.046875 37.3125 47.5625 32.6875 
Q 51.078125 28.078125 51.078125 21.140625 
Q 51.078125 11.765625 44.234375 5.25 
Q 37.40625 -1.265625 26.953125 -1.265625 
Q 17.53125 -1.265625 11.296875 4.34375 
Q 5.078125 9.96875 4.203125 18.890625 
z
" id="ArialMT-33"/>
      </defs>
      <g style="fill:#262626;" transform="translate(95.77 427.397959)scale(0.13 -0.13)">
       <use xlink:href="#ArialMT-30"/>
       <use x="55.615234" xlink:href="#ArialMT-2e"/>
       <use x="83.398438" xlink:href="#ArialMT-33"/>
      </g>
     </g>
    </g>
    <g id="ytick_2">
     <g id="line2d_5">
      <path clip-path="url(#pfcf2f4b428)" d="M 122.94 373.149167 
L 885.168 373.149167 
" style="fill:none;stroke:#ffffff;stroke-linecap:round;stroke-width:1.3;"/>
     </g>
     <g id="line2d_6"/>
     <g id="text_4">
      <!-- 0.4 -->
      <defs>
       <path d="M 32.328125 0 
L 32.328125 17.140625 
L 1.265625 17.140625 
L 1.265625 25.203125 
L 33.9375 71.578125 
L 41.109375 71.578125 
L 41.109375 25.203125 
L 50.78125 25.203125 
L 50.78125 17.140625 
L 41.109375 17.140625 
L 41.109375 0 
z
M 32.328125 25.203125 
L 32.328125 57.46875 
L 9.90625 25.203125 
z
" id="ArialMT-34"/>
      </defs>
      <g style="fill:#262626;" transform="translate(95.77 377.801745)scale(0.13 -0.13)">
       <use xlink:href="#ArialMT-30"/>
       <use x="55.615234" xlink:href="#ArialMT-2e"/>
       <use x="83.398438" xlink:href="#ArialMT-34"/>
      </g>
     </g>
    </g>
    <g id="ytick_3">
     <g id="line2d_7">
      <path clip-path="url(#pfcf2f4b428)" d="M 122.94 323.552953 
L 885.168 323.552953 
" style="fill:none;stroke:#ffffff;stroke-linecap:round;stroke-width:1.3;"/>
     </g>
     <g id="line2d_8"/>
     <g id="text_5">
      <!-- 0.5 -->
      <defs>
       <path d="M 4.15625 18.75 
L 13.375 19.53125 
Q 14.40625 12.796875 18.140625 9.390625 
Q 21.875 6 27.15625 6 
Q 33.5 6 37.890625 10.78125 
Q 42.28125 15.578125 42.28125 23.484375 
Q 42.28125 31 38.0625 35.34375 
Q 33.84375 39.703125 27 39.703125 
Q 22.75 39.703125 19.328125 37.765625 
Q 15.921875 35.84375 13.96875 32.765625 
L 5.71875 33.84375 
L 12.640625 70.609375 
L 48.25 70.609375 
L 48.25 62.203125 
L 19.671875 62.203125 
L 15.828125 42.96875 
Q 22.265625 47.46875 29.34375 47.46875 
Q 38.71875 47.46875 45.15625 40.96875 
Q 51.609375 34.46875 51.609375 24.265625 
Q 51.609375 14.546875 45.953125 7.46875 
Q 39.0625 -1.21875 27.15625 -1.21875 
Q 17.390625 -1.21875 11.203125 4.25 
Q 5.03125 9.71875 4.15625 18.75 
z
" id="ArialMT-35"/>
      </defs>
      <g style="fill:#262626;" transform="translate(95.77 328.205531)scale(0.13 -0.13)">
       <use xlink:href="#ArialMT-30"/>
       <use x="55.615234" xlink:href="#ArialMT-2e"/>
       <use x="83.398438" xlink:href="#ArialMT-35"/>
      </g>
     </g>
    </g>
    <g id="ytick_4">
     <g id="line2d_9">
      <path clip-path="url(#pfcf2f4b428)" d="M 122.94 273.956739 
L 885.168 273.956739 
" style="fill:none;stroke:#ffffff;stroke-linecap:round;stroke-width:1.3;"/>
     </g>
     <g id="line2d_10"/>
     <g id="text_6">
      <!-- 0.6 -->
      <defs>
       <path d="M 49.75 54.046875 
L 41.015625 53.375 
Q 39.84375 58.546875 37.703125 60.890625 
Q 34.125 64.65625 28.90625 64.65625 
Q 24.703125 64.65625 21.53125 62.3125 
Q 17.390625 59.28125 14.984375 53.46875 
Q 12.59375 47.65625 12.5 36.921875 
Q 15.671875 41.75 20.265625 44.09375 
Q 24.859375 46.4375 29.890625 46.4375 
Q 38.671875 46.4375 44.84375 39.96875 
Q 51.03125 33.5 51.03125 23.25 
Q 51.03125 16.5 48.125 10.71875 
Q 45.21875 4.9375 40.140625 1.859375 
Q 35.0625 -1.21875 28.609375 -1.21875 
Q 17.625 -1.21875 10.6875 6.859375 
Q 3.765625 14.9375 3.765625 33.5 
Q 3.765625 54.25 11.421875 63.671875 
Q 18.109375 71.875 29.4375 71.875 
Q 37.890625 71.875 43.28125 67.140625 
Q 48.6875 62.40625 49.75 54.046875 
z
M 13.875 23.1875 
Q 13.875 18.65625 15.796875 14.5 
Q 17.71875 10.359375 21.1875 8.171875 
Q 24.65625 6 28.46875 6 
Q 34.03125 6 38.03125 10.484375 
Q 42.046875 14.984375 42.046875 22.703125 
Q 42.046875 30.125 38.078125 34.390625 
Q 34.125 38.671875 28.125 38.671875 
Q 22.171875 38.671875 18.015625 34.390625 
Q 13.875 30.125 13.875 23.1875 
z
" id="ArialMT-36"/>
      </defs>
      <g style="fill:#262626;" transform="translate(95.77 278.609317)scale(0.13 -0.13)">
       <use xlink:href="#ArialMT-30"/>
       <use x="55.615234" xlink:href="#ArialMT-2e"/>
       <use x="83.398438" xlink:href="#ArialMT-36"/>
      </g>
     </g>
    </g>
    <g id="ytick_5">
     <g id="line2d_11">
      <path clip-path="url(#pfcf2f4b428)" d="M 122.94 224.360524 
L 885.168 224.360524 
" style="fill:none;stroke:#ffffff;stroke-linecap:round;stroke-width:1.3;"/>
     </g>
     <g id="line2d_12"/>
     <g id="text_7">
      <!-- 0.7 -->
      <defs>
       <path d="M 4.734375 62.203125 
L 4.734375 70.65625 
L 51.078125 70.65625 
L 51.078125 63.8125 
Q 44.234375 56.546875 37.515625 44.484375 
Q 30.8125 32.421875 27.15625 19.671875 
Q 24.515625 10.6875 23.78125 0 
L 14.75 0 
Q 14.890625 8.453125 18.0625 20.40625 
Q 21.234375 32.375 27.171875 43.484375 
Q 33.109375 54.59375 39.796875 62.203125 
z
" id="ArialMT-37"/>
      </defs>
      <g style="fill:#262626;" transform="translate(95.77 229.013103)scale(0.13 -0.13)">
       <use xlink:href="#ArialMT-30"/>
       <use x="55.615234" xlink:href="#ArialMT-2e"/>
       <use x="83.398438" xlink:href="#ArialMT-37"/>
      </g>
     </g>
    </g>
    <g id="ytick_6">
     <g id="line2d_13">
      <path clip-path="url(#pfcf2f4b428)" d="M 122.94 174.76431 
L 885.168 174.76431 
" style="fill:none;stroke:#ffffff;stroke-linecap:round;stroke-width:1.3;"/>
     </g>
     <g id="line2d_14"/>
     <g id="text_8">
      <!-- 0.8 -->
      <defs>
       <path d="M 17.671875 38.8125 
Q 12.203125 40.828125 9.5625 44.53125 
Q 6.9375 48.25 6.9375 53.421875 
Q 6.9375 61.234375 12.546875 66.546875 
Q 18.171875 71.875 27.484375 71.875 
Q 36.859375 71.875 42.578125 66.421875 
Q 48.296875 60.984375 48.296875 53.171875 
Q 48.296875 48.1875 45.671875 44.5 
Q 43.0625 40.828125 37.75 38.8125 
Q 44.34375 36.671875 47.78125 31.875 
Q 51.21875 27.09375 51.21875 20.453125 
Q 51.21875 11.28125 44.71875 5.03125 
Q 38.234375 -1.21875 27.640625 -1.21875 
Q 17.046875 -1.21875 10.546875 5.046875 
Q 4.046875 11.328125 4.046875 20.703125 
Q 4.046875 27.6875 7.59375 32.390625 
Q 11.140625 37.109375 17.671875 38.8125 
z
M 15.921875 53.71875 
Q 15.921875 48.640625 19.1875 45.40625 
Q 22.46875 42.1875 27.6875 42.1875 
Q 32.765625 42.1875 36.015625 45.375 
Q 39.265625 48.578125 39.265625 53.21875 
Q 39.265625 58.0625 35.90625 61.359375 
Q 32.5625 64.65625 27.59375 64.65625 
Q 22.5625 64.65625 19.234375 61.421875 
Q 15.921875 58.203125 15.921875 53.71875 
z
M 13.09375 20.65625 
Q 13.09375 16.890625 14.875 13.375 
Q 16.65625 9.859375 20.171875 7.921875 
Q 23.6875 6 27.734375 6 
Q 34.03125 6 38.125 10.046875 
Q 42.234375 14.109375 42.234375 20.359375 
Q 42.234375 26.703125 38.015625 30.859375 
Q 33.796875 35.015625 27.4375 35.015625 
Q 21.234375 35.015625 17.15625 30.90625 
Q 13.09375 26.8125 13.09375 20.65625 
z
" id="ArialMT-38"/>
      </defs>
      <g style="fill:#262626;" transform="translate(95.77 179.416888)scale(0.13 -0.13)">
       <use xlink:href="#ArialMT-30"/>
       <use x="55.615234" xlink:href="#ArialMT-2e"/>
       <use x="83.398438" xlink:href="#ArialMT-38"/>
      </g>
     </g>
    </g>
    <g id="ytick_7">
     <g id="line2d_15">
      <path clip-path="url(#pfcf2f4b428)" d="M 122.94 125.168096 
L 885.168 125.168096 
" style="fill:none;stroke:#ffffff;stroke-linecap:round;stroke-width:1.3;"/>
     </g>
     <g id="line2d_16"/>
     <g id="text_9">
      <!-- 0.9 -->
      <defs>
       <path d="M 5.46875 16.546875 
L 13.921875 17.328125 
Q 14.984375 11.375 18.015625 8.6875 
Q 21.046875 6 25.78125 6 
Q 29.828125 6 32.875 7.859375 
Q 35.9375 9.71875 37.890625 12.8125 
Q 39.84375 15.921875 41.15625 21.1875 
Q 42.484375 26.46875 42.484375 31.9375 
Q 42.484375 32.515625 42.4375 33.6875 
Q 39.796875 29.5 35.234375 26.875 
Q 30.671875 24.265625 25.34375 24.265625 
Q 16.453125 24.265625 10.296875 30.703125 
Q 4.15625 37.15625 4.15625 47.703125 
Q 4.15625 58.59375 10.578125 65.234375 
Q 17 71.875 26.65625 71.875 
Q 33.640625 71.875 39.421875 68.109375 
Q 45.21875 64.359375 48.21875 57.390625 
Q 51.21875 50.4375 51.21875 37.25 
Q 51.21875 23.53125 48.234375 15.40625 
Q 45.265625 7.28125 39.375 3.03125 
Q 33.5 -1.21875 25.59375 -1.21875 
Q 17.1875 -1.21875 11.859375 3.4375 
Q 6.546875 8.109375 5.46875 16.546875 
z
M 41.453125 48.140625 
Q 41.453125 55.71875 37.421875 60.15625 
Q 33.40625 64.59375 27.734375 64.59375 
Q 21.875 64.59375 17.53125 59.8125 
Q 13.1875 55.03125 13.1875 47.40625 
Q 13.1875 40.578125 17.3125 36.296875 
Q 21.4375 32.03125 27.484375 32.03125 
Q 33.59375 32.03125 37.515625 36.296875 
Q 41.453125 40.578125 41.453125 48.140625 
z
" id="ArialMT-39"/>
      </defs>
      <g style="fill:#262626;" transform="translate(95.77 129.820674)scale(0.13 -0.13)">
       <use xlink:href="#ArialMT-30"/>
       <use x="55.615234" xlink:href="#ArialMT-2e"/>
       <use x="83.398438" xlink:href="#ArialMT-39"/>
      </g>
     </g>
    </g>
    <g id="ytick_8">
     <g id="line2d_17">
      <path clip-path="url(#pfcf2f4b428)" d="M 122.94 75.571882 
L 885.168 75.571882 
" style="fill:none;stroke:#ffffff;stroke-linecap:round;stroke-width:1.3;"/>
     </g>
     <g id="line2d_18"/>
     <g id="text_10">
      <!-- 1.0 -->
      <defs>
       <path d="M 37.25 0 
L 28.46875 0 
L 28.46875 56 
Q 25.296875 52.984375 20.140625 49.953125 
Q 14.984375 46.921875 10.890625 45.40625 
L 10.890625 53.90625 
Q 18.265625 57.375 23.78125 62.296875 
Q 29.296875 67.234375 31.59375 71.875 
L 37.25 71.875 
z
" id="ArialMT-31"/>
      </defs>
      <g style="fill:#262626;" transform="translate(95.77 80.22446)scale(0.13 -0.13)">
       <use xlink:href="#ArialMT-31"/>
       <use x="55.615234" xlink:href="#ArialMT-2e"/>
       <use x="83.398438" xlink:href="#ArialMT-30"/>
      </g>
     </g>
    </g>
    <g id="text_11">
     <!-- classification accuracy -->
     <defs>
      <path d="M 40.4375 19 
L 49.078125 17.875 
Q 47.65625 8.9375 41.8125 3.875 
Q 35.984375 -1.171875 27.484375 -1.171875 
Q 16.84375 -1.171875 10.375 5.78125 
Q 3.90625 12.75 3.90625 25.734375 
Q 3.90625 34.125 6.6875 40.421875 
Q 9.46875 46.734375 15.15625 49.875 
Q 20.84375 53.03125 27.546875 53.03125 
Q 35.984375 53.03125 41.359375 48.75 
Q 46.734375 44.484375 48.25 36.625 
L 39.703125 35.296875 
Q 38.484375 40.53125 35.375 43.15625 
Q 32.28125 45.796875 27.875 45.796875 
Q 21.234375 45.796875 17.078125 41.03125 
Q 12.9375 36.28125 12.9375 25.984375 
Q 12.9375 15.53125 16.9375 10.796875 
Q 20.953125 6.0625 27.390625 6.0625 
Q 32.5625 6.0625 36.03125 9.234375 
Q 39.5 12.40625 40.4375 19 
z
" id="ArialMT-63"/>
      <path d="M 6.640625 61.46875 
L 6.640625 71.578125 
L 15.4375 71.578125 
L 15.4375 61.46875 
z
M 6.640625 0 
L 6.640625 51.859375 
L 15.4375 51.859375 
L 15.4375 0 
z
" id="ArialMT-69"/>
      <path d="M 8.6875 0 
L 8.6875 45.015625 
L 0.921875 45.015625 
L 0.921875 51.859375 
L 8.6875 51.859375 
L 8.6875 57.375 
Q 8.6875 62.59375 9.625 65.140625 
Q 10.890625 68.5625 14.078125 70.671875 
Q 17.28125 72.796875 23.046875 72.796875 
Q 26.765625 72.796875 31.25 71.921875 
L 29.9375 64.265625 
Q 27.203125 64.75 24.75 64.75 
Q 20.75 64.75 19.09375 63.03125 
Q 17.4375 61.328125 17.4375 56.640625 
L 17.4375 51.859375 
L 27.546875 51.859375 
L 27.546875 45.015625 
L 17.4375 45.015625 
L 17.4375 0 
z
" id="ArialMT-66"/>
      <path id="ArialMT-20"/>
      <path d="M 6.5 0 
L 6.5 51.859375 
L 14.40625 51.859375 
L 14.40625 44 
Q 17.4375 49.515625 20 51.265625 
Q 22.5625 53.03125 25.640625 53.03125 
Q 30.078125 53.03125 34.671875 50.203125 
L 31.640625 42.046875 
Q 28.421875 43.953125 25.203125 43.953125 
Q 22.3125 43.953125 20.015625 42.21875 
Q 17.71875 40.484375 16.75 37.40625 
Q 15.28125 32.71875 15.28125 27.15625 
L 15.28125 0 
z
" id="ArialMT-72"/>
     </defs>
     <g style="fill:#262626;" transform="translate(88.760297 316.193259)rotate(-90)scale(0.143 -0.143)">
      <use xlink:href="#ArialMT-63"/>
      <use x="50" xlink:href="#ArialMT-6c"/>
      <use x="72.216797" xlink:href="#ArialMT-61"/>
      <use x="127.832031" xlink:href="#ArialMT-73"/>
      <use x="177.832031" xlink:href="#ArialMT-73"/>
      <use x="227.832031" xlink:href="#ArialMT-69"/>
      <use x="250.048828" xlink:href="#ArialMT-66"/>
      <use x="277.832031" xlink:href="#ArialMT-69"/>
      <use x="300.048828" xlink:href="#ArialMT-63"/>
      <use x="350.048828" xlink:href="#ArialMT-61"/>
      <use x="405.664062" xlink:href="#ArialMT-74"/>
      <use x="433.447266" xlink:href="#ArialMT-69"/>
      <use x="455.664062" xlink:href="#ArialMT-6f"/>
      <use x="511.279297" xlink:href="#ArialMT-6e"/>
      <use x="566.894531" xlink:href="#ArialMT-20"/>
      <use x="594.677734" xlink:href="#ArialMT-61"/>
      <use x="650.292969" xlink:href="#ArialMT-63"/>
      <use x="700.292969" xlink:href="#ArialMT-63"/>
      <use x="750.292969" xlink:href="#ArialMT-75"/>
      <use x="805.908203" xlink:href="#ArialMT-72"/>
      <use x="839.208984" xlink:href="#ArialMT-61"/>
      <use x="894.824219" xlink:href="#ArialMT-63"/>
      <use x="944.824219" xlink:href="#ArialMT-79"/>
     </g>
    </g>
   </g>
   <g id="PolyCollection_1">
    <defs>
     <path d="M 315.311829 -357.501577 
L 311.682171 -357.501577 
L 311.696474 -358.028916 
L 311.738709 -358.556255 
L 311.806911 -359.083593 
L 311.897971 -359.610932 
L 312.007876 -360.138271 
L 312.131997 -360.66561 
L 312.265411 -361.192949 
L 312.403222 -361.720287 
L 312.540844 -362.247626 
L 312.674238 -362.774965 
L 312.800073 -363.302304 
L 312.915812 -363.829643 
L 313.019728 -364.356981 
L 313.110842 -364.88432 
L 313.188815 -365.411659 
L 313.253792 -365.938998 
L 313.306211 -366.466337 
L 313.346604 -366.993675 
L 313.375371 -367.521014 
L 313.392549 -368.048353 
L 313.397568 -368.575692 
L 313.388991 -369.103031 
L 313.364236 -369.630369 
L 313.319289 -370.157708 
L 313.248402 -370.685047 
L 313.143813 -371.212386 
L 312.9955 -371.739725 
L 312.791026 -372.267063 
L 312.515517 -372.794402 
L 312.151852 -373.321741 
L 311.681108 -373.84908 
L 311.083334 -374.376419 
L 310.338684 -374.903757 
L 309.428909 -375.431096 
L 308.339174 -375.958435 
L 307.060107 -376.485774 
L 305.589918 -377.013113 
L 303.936405 -377.540451 
L 302.118586 -378.06779 
L 300.167731 -378.595129 
L 298.127542 -379.122468 
L 296.05331 -379.649807 
L 294.009967 -380.177145 
L 292.069051 -380.704484 
L 290.304744 -381.231823 
L 288.789266 -381.759162 
L 287.588017 -382.286501 
L 286.754911 -382.813839 
L 286.328365 -383.341178 
L 286.328365 -383.868517 
L 286.754909 -384.395856 
L 287.588013 -384.923195 
L 288.789258 -385.450533 
L 290.304727 -385.977872 
L 292.069018 -386.505211 
L 294.0099 -387.03255 
L 296.053179 -387.559889 
L 298.127289 -388.087227 
L 300.167252 -388.614566 
L 302.117692 -389.141905 
L 303.93476 -389.669244 
L 305.586942 -390.196583 
L 307.054803 -390.723921 
L 308.329873 -391.25126 
L 309.412853 -391.778599 
L 310.311404 -392.305938 
L 311.037709 -392.833277 
L 311.606 -393.360615 
L 312.03015 -393.887954 
L 312.321413 -394.415293 
L 312.486305 -394.942632 
L 312.524637 -395.469971 
L 312.427645 -395.997309 
L 312.176233 -396.524648 
L 311.739354 -397.051987 
L 311.072617 -397.579326 
L 310.117292 -398.106665 
L 308.799964 -398.634003 
L 307.03313 -399.161342 
L 304.717107 -399.688681 
L 301.743566 -400.21602 
L 298.000971 -400.743359 
L 293.382043 -401.270697 
L 287.793153 -401.798036 
L 281.16528 -402.325375 
L 273.465854 -402.852714 
L 264.710484 -403.380053 
L 254.97335 -403.907391 
L 244.394848 -404.43473 
L 233.18513 -404.962069 
L 221.622361 -405.489408 
L 210.044933 -406.016747 
L 198.837442 -406.544085 
L 188.410946 -407.071424 
L 179.178742 -407.598763 
L 171.529567 -408.126102 
L 165.800592 -408.653441 
L 162.252826 -409.180779 
L 161.0514 -409.708118 
L 465.9426 -409.708118 
L 465.9426 -409.708118 
L 464.741174 -409.180779 
L 461.193408 -408.653441 
L 455.464433 -408.126102 
L 447.815258 -407.598763 
L 438.583054 -407.071424 
L 428.156558 -406.544085 
L 416.949067 -406.016747 
L 405.371639 -405.489408 
L 393.80887 -404.962069 
L 382.599152 -404.43473 
L 372.02065 -403.907391 
L 362.283516 -403.380053 
L 353.528146 -402.852714 
L 345.82872 -402.325375 
L 339.200847 -401.798036 
L 333.611957 -401.270697 
L 328.993029 -400.743359 
L 325.250434 -400.21602 
L 322.276893 -399.688681 
L 319.96087 -399.161342 
L 318.194036 -398.634003 
L 316.876708 -398.106665 
L 315.921383 -397.579326 
L 315.254646 -397.051987 
L 314.817767 -396.524648 
L 314.566355 -395.997309 
L 314.469363 -395.469971 
L 314.507695 -394.942632 
L 314.672587 -394.415293 
L 314.96385 -393.887954 
L 315.388 -393.360615 
L 315.956291 -392.833277 
L 316.682596 -392.305938 
L 317.581147 -391.778599 
L 318.664127 -391.25126 
L 319.939197 -390.723921 
L 321.407058 -390.196583 
L 323.05924 -389.669244 
L 324.876308 -389.141905 
L 326.826748 -388.614566 
L 328.866711 -388.087227 
L 330.940821 -387.559889 
L 332.9841 -387.03255 
L 334.924982 -386.505211 
L 336.689273 -385.977872 
L 338.204742 -385.450533 
L 339.405987 -384.923195 
L 340.239091 -384.395856 
L 340.665635 -383.868517 
L 340.665635 -383.341178 
L 340.239089 -382.813839 
L 339.405983 -382.286501 
L 338.204734 -381.759162 
L 336.689256 -381.231823 
L 334.924949 -380.704484 
L 332.984033 -380.177145 
L 330.94069 -379.649807 
L 328.866458 -379.122468 
L 326.826269 -378.595129 
L 324.875414 -378.06779 
L 323.057595 -377.540451 
L 321.404082 -377.013113 
L 319.933893 -376.485774 
L 318.654826 -375.958435 
L 317.565091 -375.431096 
L 316.655316 -374.903757 
L 315.910666 -374.376419 
L 315.312892 -373.84908 
L 314.842148 -373.321741 
L 314.478483 -372.794402 
L 314.202974 -372.267063 
L 313.9985 -371.739725 
L 313.850187 -371.212386 
L 313.745598 -370.685047 
L 313.674711 -370.157708 
L 313.629764 -369.630369 
L 313.605009 -369.103031 
L 313.596432 -368.575692 
L 313.601451 -368.048353 
L 313.618629 -367.521014 
L 313.647396 -366.993675 
L 313.687789 -366.466337 
L 313.740208 -365.938998 
L 313.805185 -365.411659 
L 313.883158 -364.88432 
L 313.974272 -364.356981 
L 314.078188 -363.829643 
L 314.193927 -363.302304 
L 314.319762 -362.774965 
L 314.453156 -362.247626 
L 314.590778 -361.720287 
L 314.728589 -361.192949 
L 314.862003 -360.66561 
L 314.986124 -360.138271 
L 315.096029 -359.610932 
L 315.187089 -359.083593 
L 315.255291 -358.556255 
L 315.297526 -358.028916 
L 315.311829 -357.501577 
z
" id="m4a6b6f8384" style="stroke:#3f3f3f;stroke-width:2.275;"/>
    </defs>
    <g clip-path="url(#pfcf2f4b428)">
     <use style="fill:#3274a1;stroke:#3f3f3f;stroke-width:2.275;" x="0" xlink:href="#m4a6b6f8384" y="485.28"/>
    </g>
   </g>
   <g id="PolyCollection_2">
    <defs>
     <path d="M 703.464531 -70.3656 
L 685.757469 -70.3656 
L 684.876842 -73.002294 
L 683.950115 -75.638988 
L 682.972329 -78.275682 
L 681.9367 -80.912376 
L 680.834486 -83.54907 
L 679.654866 -86.185764 
L 678.384848 -88.822458 
L 677.009214 -91.459152 
L 675.510508 -94.095846 
L 673.869099 -96.73254 
L 672.063311 -99.369234 
L 670.069675 -102.005928 
L 667.86329 -104.642622 
L 665.418329 -107.279316 
L 662.708673 -109.91601 
L 659.708706 -112.552704 
L 656.39422 -115.189398 
L 652.743454 -117.826092 
L 648.738222 -120.462786 
L 644.365124 -123.09948 
L 639.616808 -125.736174 
L 634.493282 -128.372868 
L 629.003241 -131.009562 
L 623.165397 -133.646256 
L 617.009777 -136.28295 
L 610.57891 -138.919644 
L 603.928829 -141.556338 
L 597.129733 -144.193032 
L 590.266124 -146.829726 
L 583.436232 -149.46642 
L 576.750503 -152.103114 
L 570.32899 -154.739808 
L 564.297538 -157.376502 
L 558.78282 -160.013196 
L 553.906363 -162.64989 
L 549.777931 -165.286584 
L 546.488749 -167.923278 
L 544.105144 -170.559972 
L 542.663253 -173.196666 
L 542.1654 -175.83336 
L 542.578594 -178.470054 
L 543.835458 -181.106748 
L 545.837604 -183.743442 
L 548.46127 -186.380136 
L 551.56473 -189.01683 
L 554.996869 -191.653524 
L 558.606165 -194.290218 
L 562.249305 -196.926912 
L 565.798733 -199.563606 
L 569.14857 -202.2003 
L 572.218508 -204.836994 
L 574.955551 -207.473688 
L 577.333618 -210.110382 
L 579.35128 -212.747076 
L 581.028017 -215.38377 
L 582.399468 -218.020464 
L 583.512221 -220.657158 
L 584.418631 -223.293852 
L 585.172129 -225.930546 
L 585.823341 -228.56724 
L 586.41726 -231.203934 
L 586.991554 -233.840628 
L 587.575978 -236.477322 
L 588.192767 -239.114016 
L 588.857792 -241.75071 
L 589.582234 -244.387404 
L 590.374513 -247.024098 
L 591.2422 -249.660792 
L 592.193714 -252.297486 
L 593.239614 -254.93418 
L 594.393375 -257.570874 
L 595.67158 -260.207568 
L 597.093533 -262.844262 
L 598.680333 -265.480956 
L 600.453517 -268.11765 
L 602.433396 -270.754344 
L 604.637274 -273.391038 
L 607.077706 -276.027732 
L 609.761005 -278.664426 
L 612.686139 -281.30112 
L 615.844132 -283.937814 
L 619.218048 -286.574508 
L 622.783537 -289.211202 
L 626.509885 -291.847896 
L 630.361454 -294.48459 
L 634.299352 -297.121284 
L 638.283176 -299.757978 
L 642.272671 -302.394672 
L 646.229193 -305.031366 
L 650.116878 -307.66806 
L 653.903497 -310.304754 
L 657.561001 -312.941448 
L 661.06578 -315.578142 
L 664.39871 -318.214836 
L 667.545035 -320.85153 
L 670.494144 -323.488224 
L 673.239273 -326.124918 
L 675.777184 -328.761612 
L 678.107807 -331.398306 
L 711.114193 -331.398306 
L 711.114193 -331.398306 
L 713.444816 -328.761612 
L 715.982727 -326.124918 
L 718.727856 -323.488224 
L 721.676965 -320.85153 
L 724.82329 -318.214836 
L 728.15622 -315.578142 
L 731.660999 -312.941448 
L 735.318503 -310.304754 
L 739.105122 -307.66806 
L 742.992807 -305.031366 
L 746.949329 -302.394672 
L 750.938824 -299.757978 
L 754.922648 -297.121284 
L 758.860546 -294.48459 
L 762.712115 -291.847896 
L 766.438463 -289.211202 
L 770.003952 -286.574508 
L 773.377868 -283.937814 
L 776.535861 -281.30112 
L 779.460995 -278.664426 
L 782.144294 -276.027732 
L 784.584726 -273.391038 
L 786.788604 -270.754344 
L 788.768483 -268.11765 
L 790.541667 -265.480956 
L 792.128467 -262.844262 
L 793.55042 -260.207568 
L 794.828625 -257.570874 
L 795.982386 -254.93418 
L 797.028286 -252.297486 
L 797.9798 -249.660792 
L 798.847487 -247.024098 
L 799.639766 -244.387404 
L 800.364208 -241.75071 
L 801.029233 -239.114016 
L 801.646022 -236.477322 
L 802.230446 -233.840628 
L 802.80474 -231.203934 
L 803.398659 -228.56724 
L 804.049871 -225.930546 
L 804.803369 -223.293852 
L 805.709779 -220.657158 
L 806.822532 -218.020464 
L 808.193983 -215.38377 
L 809.87072 -212.747076 
L 811.888382 -210.110382 
L 814.266449 -207.473688 
L 817.003492 -204.836994 
L 820.07343 -202.2003 
L 823.423267 -199.563606 
L 826.972695 -196.926912 
L 830.615835 -194.290218 
L 834.225131 -191.653524 
L 837.65727 -189.01683 
L 840.76073 -186.380136 
L 843.384396 -183.743442 
L 845.386542 -181.106748 
L 846.643406 -178.470054 
L 847.0566 -175.83336 
L 846.558747 -173.196666 
L 845.116856 -170.559972 
L 842.733251 -167.923278 
L 839.444069 -165.286584 
L 835.315637 -162.64989 
L 830.43918 -160.013196 
L 824.924462 -157.376502 
L 818.89301 -154.739808 
L 812.471497 -152.103114 
L 805.785768 -149.46642 
L 798.955876 -146.829726 
L 792.092267 -144.193032 
L 785.293171 -141.556338 
L 778.64309 -138.919644 
L 772.212223 -136.28295 
L 766.056603 -133.646256 
L 760.218759 -131.009562 
L 754.728718 -128.372868 
L 749.605192 -125.736174 
L 744.856876 -123.09948 
L 740.483778 -120.462786 
L 736.478546 -117.826092 
L 732.82778 -115.189398 
L 729.513294 -112.552704 
L 726.513327 -109.91601 
L 723.803671 -107.279316 
L 721.35871 -104.642622 
L 719.152325 -102.005928 
L 717.158689 -99.369234 
L 715.352901 -96.73254 
L 713.711492 -94.095846 
L 712.212786 -91.459152 
L 710.837152 -88.822458 
L 709.567134 -86.185764 
L 708.387514 -83.54907 
L 707.2853 -80.912376 
L 706.249671 -78.275682 
L 705.271885 -75.638988 
L 704.345158 -73.002294 
L 703.464531 -70.3656 
z
" id="m1f764b203c" style="stroke:#3f3f3f;stroke-width:2.275;"/>
    </defs>
    <g clip-path="url(#pfcf2f4b428)">
     <use style="fill:#e1812c;stroke:#3f3f3f;stroke-width:2.275;" x="0" xlink:href="#m1f764b203c" y="485.28"/>
    </g>
   </g>
   <g id="line2d_19">
    <path clip-path="url(#pfcf2f4b428)" d="M 313.497 75.571882 
L 313.497 75.571882 
" style="fill:none;stroke:#3f3f3f;stroke-linecap:round;stroke-width:2.275;"/>
   </g>
   <g id="line2d_20">
    <path clip-path="url(#pfcf2f4b428)" d="M 313.497 75.571882 
L 313.497 75.571882 
" style="fill:none;stroke:#3f3f3f;stroke-linecap:round;stroke-width:6.825;"/>
   </g>
   <g id="line2d_21">
    <path clip-path="url(#pfcf2f4b428)" d="M 694.611 414.9144 
L 694.611 153.881694 
" style="fill:none;stroke:#3f3f3f;stroke-linecap:round;stroke-width:2.275;"/>
   </g>
   <g id="line2d_22">
    <path clip-path="url(#pfcf2f4b428)" d="M 694.611 310.501317 
L 694.611 232.191506 
" style="fill:none;stroke:#3f3f3f;stroke-linecap:round;stroke-width:6.825;"/>
   </g>
   <g id="patch_3">
    <path d="M 122.94 431.8992 
L 122.94 58.2336 
" style="fill:none;"/>
   </g>
   <g id="patch_4">
    <path d="M 885.168 431.8992 
L 885.168 58.2336 
" style="fill:none;"/>
   </g>
   <g id="patch_5">
    <path d="M 122.94 431.8992 
L 885.168 431.8992 
" style="fill:none;"/>
   </g>
   <g id="patch_6">
    <path d="M 122.94 58.2336 
L 885.168 58.2336 
" style="fill:none;"/>
   </g>
   <g id="PathCollection_1">
    <defs>
     <path d="M 0 2.275 
C 0.603337 2.275 1.182044 2.035292 1.608668 1.608668 
C 2.035292 1.182044 2.275 0.603337 2.275 0 
C 2.275 -0.603337 2.035292 -1.182044 1.608668 -1.608668 
C 1.182044 -2.035292 0.603337 -2.275 0 -2.275 
C -0.603337 -2.275 -1.182044 -2.035292 -1.608668 -1.608668 
C -2.035292 -1.182044 -2.275 -0.603337 -2.275 0 
C -2.275 0.603337 -2.035292 1.182044 -1.608668 1.608668 
C -1.182044 2.035292 -0.603337 2.275 0 2.275 
z
" id="m6c63dafe0b" style="stroke:#3f3f3f;stroke-width:0.39;"/>
    </defs>
    <g clip-path="url(#pfcf2f4b428)">
     <use style="fill:#ffffff;stroke:#3f3f3f;stroke-width:0.39;" x="313.497" xlink:href="#m6c63dafe0b" y="75.571882"/>
    </g>
   </g>
   <g id="PathCollection_2">
    <g clip-path="url(#pfcf2f4b428)">
     <use style="fill:#ffffff;stroke:#3f3f3f;stroke-width:0.39;" x="694.611" xlink:href="#m6c63dafe0b" y="284.398047"/>
    </g>
   </g>
  </g>
 </g>
 <defs>
  <clipPath id="pfcf2f4b428">
   <rect height="373.6656" width="762.228" x="122.94" y="58.2336"/>
  </clipPath>
 </defs>
</svg>
